<mxfile host="app.diagrams.net" agent="Mozilla/5.0 (Windows NT 10.0; Win64; x64) AppleWebKit/537.36 (KHTML, like Gecko) Chrome/138.0.0.0 Safari/537.36" version="28.0.7">
  <diagram name="Página-1" id="iuau86kSVJY19ndc3Cy-">
    <mxGraphModel grid="1" page="1" gridSize="10" guides="1" tooltips="1" connect="1" arrows="1" fold="1" pageScale="1" pageWidth="827" pageHeight="1169" math="0" shadow="0">
      <root>
        <mxCell id="0" />
        <mxCell id="1" parent="0" />
        <mxCell id="cJ4fsP4rdt13uTdLeFmU-1" value="Caso de Uso: Registro" style="shape=umlFrame;whiteSpace=wrap;html=1;pointerEvents=0;width=80;height=40;" vertex="1" parent="1">
          <mxGeometry y="10" width="790" height="290" as="geometry" />
        </mxCell>
        <mxCell id="cJ4fsP4rdt13uTdLeFmU-2" value="" style="shape=umlLifeline;perimeter=lifelinePerimeter;whiteSpace=wrap;html=1;container=1;dropTarget=0;collapsible=0;recursiveResize=0;outlineConnect=0;portConstraint=eastwest;newEdgeStyle={&quot;curved&quot;:0,&quot;rounded&quot;:0};participant=umlActor;" vertex="1" parent="1">
          <mxGeometry x="20" y="50" width="20" height="240" as="geometry" />
        </mxCell>
        <mxCell id="cJ4fsP4rdt13uTdLeFmU-12" value="" style="html=1;points=[[0,0,0,0,5],[0,1,0,0,-5],[1,0,0,0,5],[1,1,0,0,-5]];perimeter=orthogonalPerimeter;outlineConnect=0;targetShapes=umlLifeline;portConstraint=eastwest;newEdgeStyle={&quot;curved&quot;:0,&quot;rounded&quot;:0};" vertex="1" parent="cJ4fsP4rdt13uTdLeFmU-2">
          <mxGeometry x="5" y="50" width="10" height="190" as="geometry" />
        </mxCell>
        <mxCell id="cJ4fsP4rdt13uTdLeFmU-3" value="front-end" style="shape=umlLifeline;perimeter=lifelinePerimeter;whiteSpace=wrap;html=1;container=1;dropTarget=0;collapsible=0;recursiveResize=0;outlineConnect=0;portConstraint=eastwest;newEdgeStyle={&quot;curved&quot;:0,&quot;rounded&quot;:0};" vertex="1" parent="1">
          <mxGeometry x="350" y="50" width="100" height="240" as="geometry" />
        </mxCell>
        <mxCell id="cJ4fsP4rdt13uTdLeFmU-5" value="" style="html=1;points=[[0,0,0,0,5],[0,1,0,0,-5],[1,0,0,0,5],[1,1,0,0,-5]];perimeter=orthogonalPerimeter;outlineConnect=0;targetShapes=umlLifeline;portConstraint=eastwest;newEdgeStyle={&quot;curved&quot;:0,&quot;rounded&quot;:0};" vertex="1" parent="cJ4fsP4rdt13uTdLeFmU-3">
          <mxGeometry x="45" y="130" width="10" height="80" as="geometry" />
        </mxCell>
        <mxCell id="cJ4fsP4rdt13uTdLeFmU-33" value="" style="html=1;points=[[0,0,0,0,5],[0,1,0,0,-5],[1,0,0,0,5],[1,1,0,0,-5]];perimeter=orthogonalPerimeter;outlineConnect=0;targetShapes=umlLifeline;portConstraint=eastwest;newEdgeStyle={&quot;curved&quot;:0,&quot;rounded&quot;:0};" vertex="1" parent="cJ4fsP4rdt13uTdLeFmU-3">
          <mxGeometry x="45" y="50" width="10" height="60" as="geometry" />
        </mxCell>
        <mxCell id="cJ4fsP4rdt13uTdLeFmU-4" value="back-end" style="shape=umlLifeline;perimeter=lifelinePerimeter;whiteSpace=wrap;html=1;container=1;dropTarget=0;collapsible=0;recursiveResize=0;outlineConnect=0;portConstraint=eastwest;newEdgeStyle={&quot;curved&quot;:0,&quot;rounded&quot;:0};" vertex="1" parent="1">
          <mxGeometry x="680" y="50" width="100" height="240" as="geometry" />
        </mxCell>
        <mxCell id="cJ4fsP4rdt13uTdLeFmU-11" value="" style="html=1;points=[[0,0,0,0,5],[0,1,0,0,-5],[1,0,0,0,5],[1,1,0,0,-5]];perimeter=orthogonalPerimeter;outlineConnect=0;targetShapes=umlLifeline;portConstraint=eastwest;newEdgeStyle={&quot;curved&quot;:0,&quot;rounded&quot;:0};" vertex="1" parent="cJ4fsP4rdt13uTdLeFmU-4">
          <mxGeometry x="45" y="145" width="10" height="50" as="geometry" />
        </mxCell>
        <mxCell id="cJ4fsP4rdt13uTdLeFmU-7" value="6.Demonstra mensagem que os dados foram salvos" style="html=1;verticalAlign=bottom;endArrow=open;dashed=1;endSize=8;curved=0;rounded=0;exitX=0;exitY=1;exitDx=0;exitDy=-5;" edge="1" parent="1" source="cJ4fsP4rdt13uTdLeFmU-5" target="cJ4fsP4rdt13uTdLeFmU-12">
          <mxGeometry relative="1" as="geometry">
            <mxPoint x="80" y="215" as="targetPoint" />
            <mxPoint as="offset" />
          </mxGeometry>
        </mxCell>
        <mxCell id="cJ4fsP4rdt13uTdLeFmU-6" value="3.Usuario adiciona os dados" style="html=1;verticalAlign=bottom;endArrow=block;curved=0;rounded=0;entryX=0;entryY=0;entryDx=0;entryDy=5;" edge="1" parent="1" source="cJ4fsP4rdt13uTdLeFmU-12" target="cJ4fsP4rdt13uTdLeFmU-5">
          <mxGeometry relative="1" as="geometry">
            <mxPoint x="40" y="145" as="sourcePoint" />
          </mxGeometry>
        </mxCell>
        <mxCell id="cJ4fsP4rdt13uTdLeFmU-10" value="4.Salva os dados" style="html=1;verticalAlign=bottom;endArrow=block;curved=0;rounded=0;" edge="1" parent="1" source="cJ4fsP4rdt13uTdLeFmU-5" target="cJ4fsP4rdt13uTdLeFmU-11">
          <mxGeometry width="80" relative="1" as="geometry">
            <mxPoint x="170" y="160" as="sourcePoint" />
            <mxPoint x="250" y="160" as="targetPoint" />
            <Array as="points">
              <mxPoint x="450" y="200" />
            </Array>
          </mxGeometry>
        </mxCell>
        <mxCell id="cJ4fsP4rdt13uTdLeFmU-13" value="5..Envia confirmação" style="html=1;verticalAlign=bottom;endArrow=open;dashed=1;endSize=8;curved=0;rounded=0;" edge="1" parent="1">
          <mxGeometry relative="1" as="geometry">
            <mxPoint x="725" y="240" as="sourcePoint" />
            <mxPoint x="405" y="240" as="targetPoint" />
          </mxGeometry>
        </mxCell>
        <mxCell id="cJ4fsP4rdt13uTdLeFmU-35" value="2. Exibe Formulario" style="html=1;verticalAlign=bottom;endArrow=open;dashed=1;endSize=8;curved=0;rounded=0;exitX=0;exitY=1;exitDx=0;exitDy=-5;" edge="1" parent="1" source="cJ4fsP4rdt13uTdLeFmU-33" target="cJ4fsP4rdt13uTdLeFmU-12">
          <mxGeometry relative="1" as="geometry">
            <mxPoint x="325" y="175" as="targetPoint" />
            <Array as="points">
              <mxPoint x="350" y="155" />
            </Array>
          </mxGeometry>
        </mxCell>
        <mxCell id="cJ4fsP4rdt13uTdLeFmU-34" value="1. Clica no botão &quot;Registrar&quot;" style="html=1;verticalAlign=bottom;endArrow=block;curved=0;rounded=0;entryX=0;entryY=0;entryDx=0;entryDy=5;" edge="1" parent="1" source="cJ4fsP4rdt13uTdLeFmU-12" target="cJ4fsP4rdt13uTdLeFmU-33">
          <mxGeometry relative="1" as="geometry">
            <mxPoint x="325" y="105" as="sourcePoint" />
          </mxGeometry>
        </mxCell>
      </root>
    </mxGraphModel>
  </diagram>
</mxfile>
